<?xml version="1.0" encoding="utf-8"?>
<!-- Generator: Adobe Illustrator 22.0.1, SVG Export Plug-In . SVG Version: 6.00 Build 0)  -->
<svg version="1.1" id="Layer_1" xmlns="http://www.w3.org/2000/svg" xmlns:xlink="http://www.w3.org/1999/xlink" x="0px" y="0px"
	 viewBox="0 0 418.7 290.3" style="enable-background:new 0 0 418.7 290.3;" xml:space="preserve">
<style type="text/css">
	.st0{stroke:#EC008C;stroke-width:3;stroke-miterlimit:10;}
	.st1{fill:#FFF200;}
</style>
<g>
	<circle class="st0" cx="271.4" cy="140" r="138.5"/>
	<ellipse transform="matrix(0.1602 -0.9871 0.9871 0.1602 89.7343 385.47)" class="st0" cx="271.4" cy="140" rx="36.3" ry="36.3"/>
	<circle class="st0" cx="271.4" cy="140" r="4.6"/>
	<path class="st0" d="M369.1,162.5c5-21.8,2.8-45.4-7.9-67c-14.5-29.2-41.3-48.2-71.1-53.9"/>
	<path class="st0" d="M285.7,64.9c22.7,4.3,43.1,18.9,54.2,41.1c8.2,16.5,9.9,34.6,6,51.2"/>
	<path class="st0" d="M173.5,118.4c-4.8,21.6-2.5,44.9,8.1,66.2c14.6,29.4,41.6,48.4,71.5,54"/>
	<path class="st0" d="M257.5,215.2c-22.8-4.2-43.5-18.8-54.6-41.2c-8.1-16.3-9.8-34-6.2-50.4"/>
</g>
<path class="st1" d="M144.1,284.3c0.4,0,7,6,10.9,6h0.4c2.1-0.3,5.3-1.4,8.1-5.3c1.1-1.1,47-75,76.8-119.6
	c13.7-20.7,35.4-53.6,66.3-89.8l2.1-2.5v-0.4c1.4-2.1,2.1-4.6,2.1-7.4c0-3.5-1.4-7.4-3.9-11.2c-4.2-6.3-14.7-12.6-22.1-13.3h-1.4
	c-3.2,0-6,1.1-8.1,3.5C265.8,55.4,238.1,89,190,170.7c-18.9,32.6-31.2,54.7-38.9,69.4c-15.1-20.7-39.6-56.1-61-90.1
	C76.8,129,57.5,90.4,33,45.9l-1.8-3.2l-0.4-0.4c-1.8-2.1-3.9-3.5-6.3-3.5C17.5,38.9,0,56.8,0,74.6c0,8.1,33.3,64.2,85.9,137.1
	C117.5,255.6,135.7,275.2,144.1,284.3z"/>
<g>
	<path class="st1" d="M263.1,139.6v0.4c0,5,3.4,9,8,9.1h0.3c4.5,0,8.3-3.9,8.4-8.8v-0.4c0-4.9-3.5-9-8-9.1h-0.4
		C266.8,130.8,263.2,134.6,263.1,139.6z"/>
	<path class="st1" d="M417,174.6c-0.4,0-0.7,0.3-1.1,1.1c-4.3,8.1-10.1,16.2-14,16.2c-2.4,0-3.1-4.1-3.1-9.2v-5
		c0-14.6,1.3-33.3,1.3-46.1c0-10.4-0.4-16.9-0.7-17.9c-0.4-0.7-2.7-2.4-4.9-2.4c-1.4,0-5.3,1.8-6,2.8c-0.8,1.8-1.7,16.7-1.7,29.7
		c0,12.7,0.3,23.5,0.7,32.1c0.1,0.4,0.1,4.1,0.8,8.6c-2.7,3.6-5.6,6.6-8.8,9.3c0-16.5-0.3-31.6-0.6-32.3c-0.7-1.4-2.8-1.8-5.9-1.8
		c-3.2,0-4.8,0.6-5.6,1.8c-0.7,1.1-0.8,5.9-0.8,16.4v3.1c-3.8,6-8,11.1-11.1,11.1c-2.9,0-3.6-5.3-3.6-11.6c0-4.3,0.4-11.6,0.4-15.7
		c0-1.7-0.1-2.9-0.3-3.2c-0.7-1.4-3.4-1.8-6.6-1.8c-3.1,0-4.8,0.6-5.6,1.8c-0.6,1.1-1.1,12.7-1.1,16c0,4,0.4,7.6,1.2,10.8
		c-2.1,2.3-4,3.7-5.7,3.7c-8.1,0,2.5-32.3-12.6-32.3c-9.7,0-16.9,12-21,21c0.3-4.2,0.6-8.4,0.6-11.8c0-2-0.4-7.7-0.7-8.3
		c-0.4-0.3-2.4-1-4.6-1h-0.3c-1.4,0-5.3,0.7-6.2,1.3c-0.7,0.8-1.5,10.4-1.5,13.6c0,3.5,0.1,6.7,0.3,9.5c-3.2,4.6-6.5,8-9,8
		c-2.9,0-3.6-5.3-3.6-11.6c0-4.3,0.4-11.6,0.4-15.7c0-1.7-0.1-2.9-0.3-3.2c-0.7-1.4-2.8-1.8-5.9-1.8c-3.2,0-4.8,0.6-5.6,1.8
		c-0.7,1.1-1.1,12.7-1.1,16c0,13.3,3.8,23.4,13.4,23.4c5.4,0,9.6-3.3,12.7-7c0.6,4,1.2,6.3,1.3,6.3c0.4,0.7,4.1,0.7,4.1,0.7
		s3.8,0,4.2-0.7l0.1-0.1c0.7-2.1,9.8-27.7,16.7-27.7c7.1,0-3.8,28.6,16,28.6c4.6,0,8.3-2.5,11.3-5.6c2.3,3.5,5.6,5.6,10,5.6
		c6.2,0,10.8-4.2,14-8.7l0.3,10.5c-12.5,8-23.8,14.1-23.8,28.1c0,10.5,6.6,18.3,16.1,18.3c6.7,0,17.4-5,18.8-21.6
		c0.6-6.2,1-15,1.1-24.2c3.7-3,7.5-6.6,10.8-11c1.7,4.6,4.5,8.4,9,8.4c10.5,0,16.7-12.9,18.8-16.8c0.4-0.8,0.7-2.2,0.7-3.5v-0.8
		C418.7,177.2,418,174.6,417,174.6z M359.8,238.5c-5.7,0-7.1-5.5-7.1-7.7c0-8.5,6.4-13.3,14.8-18.9c0.1,3.6,0.1,7,0.1,9.7
		C367.6,232.2,364.8,238.5,359.8,238.5z"/>
</g>
<g>
	<path class="st1" d="M217,238.6h0.3c4.5,0,8.3-3.9,8.4-8.8v-0.4c0-4.9-3.5-9-8-9.1h-0.4c-4.5,0-8.1,3.8-8.3,8.8v0.4
		C209.1,234.6,212.4,238.5,217,238.6z"/>
	<path class="st1" d="M343.9,249.1h-1.4c-1.8,0-3.9,0.3-4.1,2.2c-0.7,10.2-5,30.2-10.4,30.2c-6.2,0-8.5-22.8-9.5-30.2
		c-0.1-1.5-1.5-2.2-6.7-2.2H309c-1.7,0-3.8,0.3-3.9,2.2c-0.7,10.2-5,30.2-10.4,30.2c-6.2,0-8.5-22.8-9.5-30.2
		c-0.1-1.5-1.7-2.2-6.7-2.2c-3.4,0-6.3,0.3-6.4,2.1v0.4c0,2.5,0.6,9.2,2.3,16.4c-4.8,7.9-10.2,13-20.1,13c-5.2,0-9.7-2.5-10.9-7.8
		c2.9,1,5.9,1.5,8.8,1.5c8.7,0,16.4-4.5,16.4-12.7c0-7.8-7.3-12.9-16.4-12.9c-12.3,0-22.4,9.2-22.4,20.6c0,2.3,0.5,4.9,1.7,7.5
		c-2.2,2.6-4.4,4.2-6.1,4.2c-2.9,0-3.6-5.3-3.6-11.6c0-4.3,0.4-11.6,0.4-15.7c0-1.7-0.1-2.9-0.3-3.2c-0.7-1.4-2.8-1.8-5.9-1.8
		c-3.2,0-4.8,0.6-5.6,1.8c-0.7,1.1-1.1,12.7-1.1,16c0,13.3,3.8,23.4,13.4,23.4c5.4,0,9.6-3.3,12.8-7.1c3.9,4.1,10,7.1,18.9,7.1
		c11.7,0,19-8.8,22.5-14.6c3,7.9,7.8,14.6,15.3,14.6c8.4,0,13.7-8.7,16.8-17.9c2.9,9.2,8,17.9,16.5,17.9c16.8,0,20.9-34.4,21.1-39.1
		v-0.1C346.5,249.8,345.7,249.1,343.9,249.1z M252.2,258.4c3.1,0,6,1.3,6,5c0,4.1-6,5.5-10.8,5.5c-1.8,0-3.5-0.1-4.5-0.6
		C243.5,262.7,247.6,258.4,252.2,258.4z"/>
</g>
</svg>
